<?xml version="1.0" encoding="utf-8"?>
<!-- Generator: Adobe Illustrator 19.2.1, SVG Export Plug-In . SVG Version: 6.00 Build 0)  -->
<svg version="1.1" id="main" xmlns="http://www.w3.org/2000/svg" xmlns:xlink="http://www.w3.org/1999/xlink" x="0px" y="0px"
	 viewBox="0 0 1000 1000" style="enable-background:new 0 0 1000 1000;" xml:space="preserve">
<style type="text/css">
	.st0{fill:none;stroke:#4B3E73;stroke-width:12;stroke-linejoin:bevel;stroke-miterlimit:10;}
</style>
<path id="outline_20_" class="st0" d="M274.842,520.984c13.365,54.45-0.292,89.208,23.76,114.675
	c22.44,23.76,76.23,96.69,108.9,115.5c28.841,16.605,84.15,18.81,111.87,0c27.72-18.81,82.83-95.04,111.87-127.38
	c20.117-22.403,10.89-62.205,17.82-109.725"/>
<path id="outline_19_" class="st0" d="M254.052,404.164c-21.78-13.2-29.7,30.69-17.82,64.35c9.249,26.206,4.29,82.005,45.54,85.14"
	/>
<path id="outline_18_" class="st0" d="M660.282,402.019c27.72-14.52,33.624,29.56,27.559,57.42
	c-7.759,35.64-3.638,88.44-40.099,89.76"/>
<path id="outline_17_" class="st0" d="M278.142,296.089c-1.98,44.22-17.82,101.97-15.18,159.06
	c-4.984-72.497-29.693-196.766-31.68-237.6c-3.033-62.328,101.129-173.135,227.7-166.32c128.7,6.93,214.17,93.06,215.16,155.43
	c1.275,80.333-10.89,175.89-16.17,232.65c-7.26-64.35-33.33-139.59-26.07-189.09c-59.73,31.02-158.07,9.9-239.91,54.78
	c9.405-27.473,4.62-37.95,19.47-62.7c-29.7,23.43-53.79,32.01-53.13,100.32c-21.12-30.36-30.36-47.19-39.6-86.46
	c-11.22,30.36,0.33,57.42,6.93,91.08c-32.34-26.07-45.87-33.99-50.16-65.67"/>
<path id="outline_16_" class="st0" d="M313.452,402.679c25.08-19.8,81.18-13.86,121.77,17.82"/>
<path id="outline_15_" class="st0" d="M425.817,558.604c-6.93,12.375,6.93,17.573,17.573,21.533
	c8.719,3.244,14.603,7.92,26.813,8.003c13.86,0.094,19.965-5.775,34.32-8.745c11.823-2.446,17.573-10.148,11.88-20.047"/>
<path id="outline_14_" class="st0" d="M363.942,422.479c0.743,24.75,28.958,23.017,30.443,2.97"/>
<path id="outline_13_" class="st0" d="M545.772,426.769c2.64,21.12,28.05,17.82,28.38,0.33"/>
<path id="outline_12_" class="st0" d="M392.982,641.929c30.36,5.61,42.983-1.155,58.08,4.785c12.885,5.07,29.7,4.95,40.838,0.247
	c9.401-3.969,28.462,0.578,50.902-5.693"/>
<path id="outline_11_" class="st0" d="M434.727,671.464c18.068,15.592,52.47,13.612,68.31,2.722"/>
<path id="outline_10_" class="st0" d="M335.562,428.749c27.06-12.54,53.46-15.84,79.2,6.6"/>
<path id="outline_9_" class="st0" d="M520.032,436.669c33-23.43,54.78-18.48,75.57-4.29"/>
<path id="outline_8_" class="st0" d="M281.442,493.759c8.91,27.39,33,51.15,38.94,72.765"/>
<path id="outline_7_" class="st0" d="M638.172,498.709c-12.87,25.08-27.225,29.7-42.075,57.915"/>
<path id="outline_6_" class="st0" d="M348.349,449.457c15.592,16.582,39.353,15.345,60.143,5.445"/>
<path id="outline_5_" class="st0" d="M532.984,457.129c21.533,10.643,40.59,8.415,57.173-2.228"/>
<path id="outline_4_" class="st0" d="M493.632,538.309c-6.93-64.35,0.742-104.94,17.16-119.79
	c26.828-24.267,76.56-46.86,101.64-25.41"/>
<path id="outline_3_" class="st0" d="M322.824,734.672c-4.451,71.251,47.872,148.517,155.371,152.873
	c75.439,3.057,166.57-35.814,153.642-171.207"/>
<path id="outline_2_" class="st0" d="M329,672c3.077,32.362,8.412,52.872-10.154,65.284
	c-44.114,29.493-105.606,53.974-157.265,74.446c-60.305,23.898-123.129,60.314-144.092,121.791"/>
<path id="outline_1_" class="st0" d="M612,646.5c-1.533,31.01,5.499,58.284,17.871,67.845
	c45.941,35.502,149.938,75.695,195.908,87.827c45.434,11.99,129.987,40.795,163.668,112.798"/>
<path id="outline" class="st0" d="M292.984,754.927c-7.805,79.148,73.883,159.861,175.053,170.169
	c104.209,10.617,215.705-78.377,199.276-184.753"/>
</svg>
